<?xml version="1.0" encoding="UTF-8" standalone="no"?>
<!-- Created with Inkscape (http://www.inkscape.org/) -->

<svg
   version="1.1"
   id="svg2"
   width="50"
   height="50"
   viewBox="0 0 50 50"
   sodipodi:docname="mibots-logo.svg"
   inkscape:version="1.2.2 (b0a8486541, 2022-12-01)"
   xmlns:inkscape="http://www.inkscape.org/namespaces/inkscape"
   xmlns:sodipodi="http://sodipodi.sourceforge.net/DTD/sodipodi-0.dtd"
   xmlns="http://www.w3.org/2000/svg"
   xmlns:svg="http://www.w3.org/2000/svg">
  <defs
     id="defs6" />
  <sodipodi:namedview
     id="namedview4"
     pagecolor="#505050"
     bordercolor="#eeeeee"
     borderopacity="1"
     inkscape:showpageshadow="0"
     inkscape:pageopacity="0"
     inkscape:pagecheckerboard="0"
     inkscape:deskcolor="#505050"
     showgrid="false"
     inkscape:zoom="6.9237539"
     inkscape:cx="28.163913"
     inkscape:cy="26.141888"
     inkscape:window-width="1366"
     inkscape:window-height="699"
     inkscape:window-x="0"
     inkscape:window-y="0"
     inkscape:window-maximized="1"
     inkscape:current-layer="g10">
    <inkscape:page
       x="0"
       y="0"
       id="page8"
       width="50"
       height="50" />
  </sodipodi:namedview>
  <g
     id="g10"
     inkscape:groupmode="layer"
     inkscape:label="Page 1"
     transform="matrix(1.3333333,0,0,-1.3333333,0,96)">
    <g
       id="g1276"
       transform="matrix(0.58617015,0,0,0.58617015,-0.65738586,31.641425)">
      <path
         d="m 41.0363,54.051 c 0.0377,-0.0343 0.0859,-0.0759 0.1174,-0.0981 0.03,-0.0215 0.0805,-0.0663 0.1185,-0.0907 l 6.0837,-1.5928 c 0.555,-0.1357 1.0471,-0.2185 1.5933,-0.3931 0.7841,-0.25 0.7005,-0.237 0.9253,-1.0902 1.3215,-5.0097 0.8158,-12.3372 -0.944,-16.9747 -2.1279,-5.6053 -4.6145,-7.92 -8.3194,-11.3105 -1.2997,-1.1898 -6.4258,-4.1701 -7.3193,-4.3045 -0.8498,-0.1278 -4.5094,2.1297 -5.2566,2.6173 -2.8922,1.8876 -4.0241,2.9094 -6.3133,5.4819 -5.6475,6.3453 -7.09,15.7893 -5.3878,24.3159 0.2798,1.4034 0.8631,1.2773 2.2359,1.5828 1.639,0.3648 4.9921,1.3757 6.5348,1.3842 0.1921,0.5879 0.5031,1.2192 0.5638,1.7303 -3.123,-0.6662 -7.3174,-1.4349 -10.2396,-2.4772 -2.3026,-7.748 -1.4633,-17.4158 2.4449,-23.5585 2.3224,-3.6496 3.6039,-5.1568 6.5026,-7.6377 1.3839,-1.1843 7.5583,-5.2483 8.898,-5.0694 0.6987,0.0926 4.1641,2.0074 4.7531,2.3649 11.9344,7.2524 16.4753,19.675 12.801,33.9888 L 40.4561,55.41 c 0.1525,-0.3994 0.3668,-0.9139 0.5802,-1.359"
         style="fill:#b3b3b3;fill-opacity:1;fill-rule:evenodd;stroke:none"
         id="path12" />
      <path
         d="M 25.1048,53.5785 C 23.5621,53.57 20.209,52.5591 18.57,52.1943 17.1972,51.8888 16.6139,52.0149 16.3341,50.6115 14.6319,42.0849 16.0744,32.6409 21.7219,26.2956 c 2.2892,-2.5725 3.4211,-3.5943 6.3133,-5.4819 0.7472,-0.4876 4.4068,-2.7451 5.2566,-2.6173 0.8935,0.1344 6.0196,3.1147 7.3193,4.3045 3.7049,3.3905 6.1915,5.7052 8.3194,11.3105 1.7598,4.6375 2.2655,11.965 0.944,16.9747 -0.2248,0.8532 -0.1412,0.8402 -0.9253,1.0902 -0.5462,0.1746 -1.0383,0.2574 -1.5933,0.3931 l -6.0837,1.5928 c -0.038,0.0244 -0.0885,0.0692 -0.1185,0.0907 -0.0315,0.0222 -0.0797,0.0638 -0.1174,0.0981 L 41.5984,52.1782 48.306,50.44 c 0.0905,-0.1296 0.091,-0.1129 0.1874,-0.3575 0.8464,-2.1469 0.7112,-8.3392 0.3555,-10.5993 -0.4955,-3.1453 -1.5012,-6.2405 -2.988,-8.7579 -1.6163,-2.7377 -3.346,-4.7631 -5.4493,-6.5222 -1.0758,-0.8998 -2.2057,-1.6807 -3.5059,-2.4821 -4.0558,-2.499 -3.6562,-2.446 -7.8117,0.1406 -2.2868,1.4236 -4.7764,3.4504 -6.4231,5.5548 -2.7759,3.5481 -4.6854,7.4152 -5.3022,12.289 -0.269,2.1269 -0.5383,9.1931 0.5434,10.6444 0.6752,0.5922 5.4474,1.4383 6.7709,1.7229 z"
         style="fill:#ffffff;fill-opacity:1;fill-rule:evenodd;stroke:none"
         id="path14" />
      <path
         d="m 51.9778,54.0584 c 5.2066,-17.3582 -2.6765,-31.735 -16.9257,-38.2975 -2.2663,-1.044 -1.5477,-1.0207 -3.7775,-0.0238 -2.9378,1.3136 -7.4466,4.0399 -9.5635,6.395 -0.8589,0.955 -1.705,1.6526 -2.558,2.7615 -2.9548,3.8404 -5.5213,8.625 -6.2251,14.8708 -0.3841,3.4095 -0.2875,6.6881 0.2763,10.004 0.1188,0.7002 0.7895,3.8243 1.1175,4.1786 0.5218,0.5641 11.5225,2.884 12.6688,3.126 1.9347,0.4088 4.0638,2.7482 8.3254,1.6135 1.5687,-0.4181 2.3457,-1.1789 3.8494,-1.4967 4.449,-0.9391 8.4328,-1.9975 12.8124,-3.1314 z m 0.7441,0.7421 c -4.0556,1.2538 -8.9638,2.3275 -13.2203,3.2672 -1.5874,0.3501 -2.3714,1.1126 -4.0722,1.5577 -1.6333,0.4277 -3.2922,0.3597 -4.9082,-0.091 -1.5744,-0.4388 -2.4684,-1.2924 -3.8798,-1.5894 -3.6785,-0.7733 -7.5895,-1.6041 -11.1818,-2.6087 -0.7022,-0.1965 -1.6926,-0.2214 -2.0197,-0.8414 -0.2894,-0.5485 -0.9692,-3.5127 -1.1262,-4.3676 -1.7569,-9.5664 0.5669,-18.9425 6.3312,-26.0674 3.1717,-3.9203 7.2697,-6.9134 12.7324,-9.3983 2.1926,-0.9972 1.6693,-0.856 3.9095,0.1897 1.345,0.6278 2.3502,1.1035 3.6255,1.8575 12.5629,7.4282 18.8827,21.4733 13.8096,38.0917"
         style="fill:#05edf4;fill-opacity:1;fill-rule:evenodd;stroke:none"
         id="path16" />
      <path
         d="m 26.3415,33.387 c 0.3662,0.8447 1.0426,1.2396 1.6058,1.5494 0.5638,0.3102 1.0148,0.5355 1.973,0.7606 0.9581,0.2259 2.4236,0.451 3.804,0.451 1.3808,0 2.6771,-0.2251 3.8041,-0.5352 1.1271,-0.3101 2.0852,-0.7047 2.6207,-1.1832 0.5357,-0.4793 0.6485,-1.0429 0.7047,-1.7759 0.0564,-0.7328 0.0564,-1.6345 -0.2254,-3.0716 -0.2818,-1.4369 -0.8456,-3.4095 -1.4374,-4.9595 -0.5916,-1.5497 -1.2116,-2.6773 -1.719,-3.4943 -0.5074,-0.8175 -0.9014,-1.3246 -1.5213,-1.8598 -0.6202,-0.5355 -1.4655,-1.0996 -2.3956,-1.2118 -0.9295,-0.1128 -1.944,0.2256 -2.874,1.0706 -0.9298,0.8453 -1.7757,2.1983 -2.4234,3.6071 -0.6483,1.4094 -1.0992,2.8744 -1.4652,4.0859 -0.3662,1.2124 -0.6486,2.1705 -0.7614,3.2975 -0.1122,1.1274 -0.0561,2.4234 0.3104,3.2692"
         style="fill:#ffffff;fill-opacity:1;fill-rule:evenodd;stroke:none"
         id="path18" />
      <path
         d="m 41.6146,28.9341 c 0.1409,0.5074 0.4793,1.0145 0.7894,1.6347 0.3096,0.6197 0.5913,1.3521 0.8734,2.0849 0.451,-0.3379 0.9014,-0.6763 1.5213,-1.2682 0.62,-0.5913 1.4094,-1.4372 2.001,-2.2822 0.5916,-0.8456 0.9865,-1.6911 1.1554,-2.1699 0.1692,-0.4791 0.1128,-0.5919 -0.5638,-1.1554 -0.6758,-0.5635 -1.9726,-1.5783 -2.7051,-2.1135 -0.7328,-0.5355 -0.902,-0.5919 -1.1271,-0.5355 -0.2256,0.0564 -0.5071,0.2254 -0.7888,0.7047 -0.2818,0.4785 -0.5638,1.2682 -0.7611,1.9162 -0.1973,0.6483 -0.3101,1.1551 -0.3946,1.6623 -0.0848,0.5076 -0.1409,1.0148 0,1.5219"
         style="fill:#ffffff;fill-opacity:1;fill-rule:evenodd;stroke:none"
         id="path20" />
      <path
         d="m 47.7485,26.0898 c 0.3132,-0.4609 0.6261,-0.9215 0.811,-1.2929 0.1845,-0.3713 0.2412,-0.6531 0.1567,-0.9915 -0.0847,-0.3382 -0.3101,-0.7325 -0.5638,-1.071 -0.2537,-0.3381 -0.5352,-0.6199 -0.7889,-0.7889 -0.254,-0.1692 -0.4793,-0.2256 -0.733,-0.2537 -0.2531,-0.0283 -0.5352,-0.0283 -0.8736,0.0281 -0.3382,0.0561 -0.7325,0.1692 -1.0707,0.3946 -0.3382,0.2253 -0.6199,0.5635 -0.7608,0.7325 -0.1412,0.1692 -0.1412,0.1692 -0.0153,0.2593 0.1256,0.0905 0.377,0.2707 0.7546,0.5522 0.3781,0.2812 0.8827,0.6636 1.4176,1.0854 0.5351,0.4221 1.1004,0.8841 1.6662,1.3459"
         style="fill:#000000;fill-opacity:1;fill-rule:evenodd;stroke:none"
         id="path22" />
      <path
         d="m 24.9707,28.9341 c -0.1409,0.5074 -0.4794,1.0145 -0.7892,1.6347 -0.3101,0.6197 -0.5916,1.3521 -0.8733,2.0849 -0.451,-0.3379 -0.902,-0.6763 -1.5217,-1.2682 -0.6202,-0.5913 -1.4094,-1.4372 -2.001,-2.2822 -0.5918,-0.8456 -0.9864,-1.6911 -1.1551,-2.1699 -0.1689,-0.4791 -0.1131,-0.5919 0.5633,-1.1554 0.6763,-0.5635 1.9726,-1.5783 2.7054,-2.1135 0.7327,-0.5355 0.9017,-0.5919 1.127,-0.5355 0.2256,0.0564 0.5074,0.2254 0.7895,0.7047 0.2814,0.4785 0.5632,1.2682 0.7605,1.9162 0.1973,0.6483 0.3098,1.1551 0.3946,1.6623 0.0844,0.5076 0.1411,1.0148 0,1.5219"
         style="fill:#ffffff;fill-opacity:1;fill-rule:evenodd;stroke:none"
         id="path24" />
      <path
         d="m 18.8368,26.0898 c -0.3132,-0.4609 -0.6262,-0.9215 -0.8107,-1.2929 -0.1851,-0.3713 -0.2412,-0.6531 -0.1568,-0.9915 0.0845,-0.3382 0.3101,-0.7325 0.5636,-1.071 0.2537,-0.3381 0.5354,-0.6199 0.7888,-0.7889 0.2537,-0.1692 0.4794,-0.2256 0.7331,-0.2537 0.2534,-0.0283 0.5352,-0.0283 0.8736,0.0281 0.3379,0.0561 0.7322,0.1692 1.0707,0.3946 0.3378,0.2253 0.6199,0.5635 0.7611,0.7325 0.1406,0.1692 0.1406,0.1692 0.015,0.2593 -0.1256,0.0905 -0.377,0.2707 -0.7549,0.5522 -0.3778,0.2812 -0.8824,0.6636 -1.4176,1.0854 -0.5349,0.4221 -1.1004,0.8841 -1.6659,1.3459"
         style="fill:#000000;fill-opacity:1;fill-rule:evenodd;stroke:none"
         id="path26" />
      <path
         d="m 47.018,14.37 c 0.1046,0.0399 0.216,0.0688 0.3322,0.0833 l 0.0814,0.0105 h 0.0507 c 0.4864,0.0275 0.9814,0.0754 1.4672,0.1139 1.3244,0.1049 2.649,0.2118 3.9733,0.3186 l 0.7529,0.0607 0.6647,-1.012 v -2.2728 c 0,-0.2511 -0.0479,-0.4564 -0.1318,-0.625 l 0.1318,-0.2001 V 6.4939 c 0,-0.5335 -0.3155,-0.9865 -0.7869,-1.2115 L 53.32,5.1707 46.8224,4.8767 46.4074,5.4816 45.6789,5.0031 43.5492,4.9346 C 43.4625,4.9167 43.374,4.9076 43.2828,4.9076 H 42.6115 L 42.0919,5.665 41.5752,4.8787 40.854,4.9088 c -1.2962,0.0532 -2.5928,0.1068 -3.8897,0.155 -0.5309,0.0204 -1.0794,0.0513 -1.6106,0.0513 h -0.671 L 34.6635,5.1432 34.3871,4.8821 33.8443,4.909 c -1.0755,0.0533 -2.151,0.1069 -3.2267,0.1557 -0.3527,0.0156 -0.72,0.0396 -1.0778,0.0479 C 29.5058,5.091 29.4704,5.0709 29.4344,5.0522 L 29.1577,4.9076 h -0.3129 c -0.506,0 -1.0358,0.0335 -1.5423,0.0527 C 26.0283,5.008 24.7544,5.0579 23.4808,5.1075 23.2736,4.9802 23.0287,4.9076 22.767,4.9076 h -0.0507 l -0.0502,0.004 C 22.2415,4.945 21.8143,4.9796 21.3914,5.0275 20.7048,5.1052 19.9559,5.3045 19.8595,6.1727 19.6733,5.6744 19.1948,5.3229 18.6287,5.3229 H 18.5803 L 18.5318,5.3263 C 18.1565,5.3549 17.7786,5.3841 17.4044,5.4278 16.6808,5.5125 15.9185,5.783 15.9185,6.7637 v 6.7595 c 0,0.8297 0.6486,1.2666 1.3779,1.3448 0.2458,0.0261 0.5009,0.0315 0.7498,0.0323 0.2341,0.0318 0.4751,0.0369 0.6953,0.0423 l 0.0165,5e-4 h 0.0161 c 0.3544,0 0.6239,-0.123 0.8445,-0.3138 l 0.0555,0.2081 0.7424,0.1746 c 0.2489,0.059 0.5752,0.0686 0.832,0.0842 0.5006,0.0298 1.0018,0.0521 1.5024,0.0745 l 0.8268,0.0369 0.3657,-0.7319 c 0.2999,0.0198 0.6009,0.0451 0.8949,0.0646 1.3133,0.0893 2.6257,0.1814 3.9387,0.2738 l 0.7444,0.0522 0.1358,-0.2066 4.3906,-0.1747 c 0.1114,-0.0028 0.2131,-0.0173 0.3067,-0.0422 l 0.3495,0.5102 0.7084,-0.0326 c 1.3762,-0.0632 2.7533,-0.1261 4.1292,-0.1975 0.2256,-0.0119 0.6508,-0.021 1.048,-0.0508 l 0.2174,0.3172 0.7495,-0.074 c 1.345,-0.1318 2.6895,-0.2644 4.0342,-0.4002 0.4706,-0.0474 0.9562,-0.0868 1.4273,-0.1451"
         style="fill:#05edf4;fill-opacity:1;fill-rule:evenodd;stroke:none"
         id="path28" />
      <path
         d="M 22.8095,13.9011 22.8311,13.858 V 6.2243 c 0,-0.0323 -0.0216,-0.0425 -0.0641,-0.0425 -1.0967,0.085 -1.6398,0.1488 -1.6398,0.1916 V 9.5885 H 21.0847 L 19.9346,8.1831 c -0.0955,0.0856 -0.5,0.6284 -1.203,1.6401 H 18.6678 V 6.6393 c 0,-0.0317 -0.011,-0.0425 -0.0428,-0.0425 -0.9476,0.0745 -1.4266,0.1278 -1.4266,0.1706 v 6.7609 c 0,0.0638 0.3194,0.0959 0.9473,0.0959 0,0.0212 0.2134,0.032 0.6284,0.0425 0.0641,0 0.3198,-0.4048 0.7456,-1.2243 l 0.5643,-0.9159 c 0.0318,0.0428 0.2339,0.7881 0.6282,2.2465 0.1168,0.032 0.8198,0.0643 2.0973,0.1281 m 6.0585,-0.362 0.0426,-0.0536 v -1.629 c 0,-0.0635 -0.5006,-0.1276 -1.5013,-0.2021 -0.1173,0 -0.1811,-0.0426 -0.1811,-0.1279 -0.0213,-0.1275 -0.0533,-1.3413 -0.1276,-3.6623 0.6069,-0.0111 1.0752,-0.0216 1.3947,-0.0216 h 0.3512 c 0.0215,0 0.0428,-0.0212 0.0641,-0.0635 V 6.2456 c 0,-0.0213 -0.0213,-0.0425 -0.0641,-0.0638 -0.1491,0 -1.9911,0.0745 -5.5259,0.2126 l -0.0425,0.0533 v 1.3314 c 0,0.0207 0.0213,0.0423 0.053,0.0635 h 0.341 c 0.2659,0 0.6602,0.0105 1.1818,0.0216 l 0.2129,3.5988 C 24.215,11.4415 23.6614,11.4202 23.4167,11.4202 l -0.0961,-0.0212 -0.0425,0.064 v 1.6393 c 0,0.0428 0.0213,0.0638 0.0743,0.0638 0.1494,0 1.9808,0.1278 5.5156,0.373 m 0.4683,-0.1383 4.6846,-0.1919 c 0.0422,0 0.3086,-0.3728 0.809,-1.118 0.0535,-0.0422 0.0853,-0.1171 0.0853,-0.2129 v -1.8527 c 0,-0.0746 -0.2342,-0.3195 -0.692,-0.7027 L 34.1702,9.2375 V 9.1947 c 0.4896,-0.3937 0.745,-0.6281 0.745,-0.6811 V 7.2465 c 0,-0.0853 -0.33,-0.4365 -1.0006,-1.0647 -2.7789,0.1383 -4.3121,0.2126 -4.5891,0.2126 L 29.283,6.4477 v 6.889 c 0,0.0213 0.0213,0.0425 0.0533,0.0641 z M 31.104,12.0056 V 9.972 h 1.9165 c 0.032,0 0.0422,0.0108 0.0422,0.032 0,0.1066 0.053,0.7025 0.1489,1.7677 -0.1701,0.0315 -0.8725,0.1063 -2.1076,0.2339 z M 30.9866,8.7372 C 30.9654,8.3217 30.9654,8.0022 30.9654,7.7998 V 7.3636 c 1.1608,0.032 1.8527,0.0425 2.0551,0.0425 v 0.0212 c 0,0.1701 -0.0323,0.5857 -0.1069,1.2351 z m 4.3756,4.9082 c 3.6309,-0.1599 5.4938,-0.2557 5.5687,-0.2874 l 0.0212,-0.0425 V 6.2456 L 40.9096,6.1818 c -3.3432,0.1383 -5.1959,0.2126 -5.5474,0.2126 l -0.0425,0.0533 v 7.1339 z m 1.5761,-1.9273 V 8.2046 C 37.1296,8.1621 37.9071,8.0345 39.291,7.8214 l -0.064,4.1417 c -1.4587,-0.1491 -2.225,-0.2342 -2.2887,-0.245 m 4.5037,1.9273 c 3.5135,-0.3407 5.3659,-0.5323 5.5683,-0.5539 l 0.0213,-0.0422 V 11.399 c 0,-0.0216 -0.0213,-0.0428 -0.0638,-0.0641 -0.1171,0 -0.7135,-0.0213 -1.8102,-0.0743 0,-0.3835 0.0641,-2.0231 0.1916,-4.9512 L 45.2854,6.2668 43.348,6.2031 C 43.3264,6.192 43.3052,6.1818 43.2839,6.1818 l -0.0425,0.0638 v 5.1106 l -1.7994,0.0428 -0.0429,0.064 v 2.1186 z m 11.584,-0.0212 0.0425,-0.0638 v -1.8848 c 0,-0.0745 -0.4575,-0.1063 -1.3734,-0.1063 l -1.9165,-0.085 c 0,-0.1814 -0.0104,-0.5647 -0.0428,-1.1608 h 0.0213 c 0.2665,0 1.3524,0.0641 3.2689,0.2024 l 0.0425,-0.0641 V 6.4905 c 0,-0.0216 -0.0212,-0.0428 -0.0637,-0.0533 L 47.4789,6.1818 47.4361,6.2456 v 1.118 c 0,0.0637 0.4362,0.1275 1.3099,0.1916 l 2.3,0.2662 v 0.0212 c -0.1706,0.7563 -0.2772,1.1285 -0.3092,1.1285 -0.0851,0 -1.171,-0.1171 -3.2579,-0.33 l -0.0428,0.053 v 4.4295 c 0,0.0425 0.0213,0.064 0.0745,0.064 0.0746,0 1.9061,0.1491 5.5154,0.4366"
         style="fill:#000000;fill-opacity:1;fill-rule:nonzero;stroke:none"
         id="path30" />
      <path
         d="m 44.5363,22.1329 c -0.0726,-0.0371 -0.1795,-0.1389 -0.2257,-0.2653 -0.0462,-0.1259 -0.0317,-0.2767 0.0771,-0.3606 0.1092,-0.0836 0.3121,-0.1003 0.6188,-0.1324 0.3067,-0.0311 0.7169,-0.0782 1.1276,-0.0929 0.4102,-0.0151 0.821,0.002 1.1529,0.0975 0.3322,0.0949 0.5862,0.2684 0.8229,0.5034 0.237,0.2347 0.4569,0.5307 0.6429,0.8609 0.1862,0.3299 0.3387,0.6939 0.4275,1.0261 0.089,0.332 0.1142,0.6324 0.0022,0.9732 -0.1122,0.3407 -0.3617,0.7211 -0.5247,0.9456 -0.163,0.2239 -0.2389,0.2914 -0.2982,0.3322 -0.0592,0.04 -0.1017,0.0528 -0.1471,0.082 -0.0456,0.0289 -0.0941,0.0748 -0.1542,0.049 -0.0598,-0.0255 -0.131,-0.1227 -0.1236,-0.2364 0.0079,-0.1137 0.0947,-0.2438 0.186,-0.385 0.0912,-0.1411 0.1868,-0.2939 0.2605,-0.4181 0.0737,-0.1241 0.1261,-0.2197 0.1709,-0.3112 0.0453,-0.0916 0.0833,-0.1792 0.112,-0.2597 0.0292,-0.0802 0.0499,-0.1533 0.062,-0.2455 0.0125,-0.0924 0.017,-0.2038 0.0142,-0.2888 -0.0031,-0.0848 -0.0139,-0.1432 -0.0575,-0.2656 -0.0442,-0.1227 -0.1219,-0.3098 -0.2157,-0.4881 -0.0939,-0.1786 -0.2041,-0.3487 -0.3204,-0.5046 -0.1153,-0.1559 -0.2364,-0.2982 -0.3682,-0.4295 -0.1312,-0.1318 -0.273,-0.2525 -0.4663,-0.3554 -0.193,-0.1029 -0.4374,-0.1874 -0.6698,-0.2418 -0.2324,-0.0547 -0.453,-0.0791 -0.777,-0.0088 -0.3237,0.0706 -0.7514,0.2358 -0.9847,0.3325 -0.233,0.0964 -0.2716,0.1242 -0.3444,0.0873"
         style="fill:#05edf4;fill-opacity:1;fill-rule:evenodd;stroke:none"
         id="path32" />
      <path
         d="m 21.8594,21.937 c 0.0725,-0.0371 0.1794,-0.1386 0.2256,-0.2644 0.0459,-0.1265 0.0315,-0.2773 -0.0777,-0.3609 -0.1085,-0.0836 -0.3115,-0.1009 -0.6182,-0.1324 -0.307,-0.0317 -0.7172,-0.0785 -1.1276,-0.0932 -0.4102,-0.0148 -0.8206,0.0022 -1.1529,0.0975 -0.3322,0.095 -0.5859,0.2687 -0.8226,0.5037 -0.2372,0.2344 -0.4575,0.5307 -0.6432,0.8606 -0.1862,0.3302 -0.3387,0.6942 -0.4274,1.0261 -0.089,0.3323 -0.1145,0.6322 -0.002,0.9729 0.1122,0.3407 0.3614,0.7217 0.5241,0.9456 0.163,0.2243 0.2393,0.2923 0.2985,0.3325 0.0595,0.04 0.1018,0.0528 0.1471,0.082 0.0457,0.0292 0.0944,0.0751 0.1545,0.049 0.0595,-0.0255 0.131,-0.1225 0.123,-0.2361 -0.0076,-0.1137 -0.0946,-0.2435 -0.1774,-0.3946 -0.0831,-0.1511 -0.1619,-0.3234 -0.233,-0.4955 -0.0715,-0.1718 -0.1352,-0.3433 -0.1477,-0.5613 -0.0131,-0.2179 0.0255,-0.4827 0.1576,-0.8186 0.1324,-0.3362 0.358,-0.7441 0.6378,-1.0607 0.2792,-0.3167 0.6126,-0.5423 0.9037,-0.6461 0.2911,-0.1034 0.5411,-0.0858 0.8855,-0.0362 0.3441,0.0493 0.7832,0.1309 1.0219,0.1851 0.239,0.0544 0.2775,0.0825 0.3504,0.045"
         style="fill:#05edf4;fill-opacity:1;fill-rule:evenodd;stroke:none"
         id="path34" />
      <path
         d="m 33.4596,37.0837 c -1.8879,0.0283 -4.0859,0.5354 -5.8051,1.0993 -1.7186,0.5632 -2.9588,1.1834 -3.776,1.9723 -0.817,0.7895 -1.2118,1.747 -1.6628,3.1844 -0.4504,1.4372 -0.9578,3.3534 -1.268,4.8751 -0.3098,1.5216 -0.4226,2.6489 -0.5354,3.7763 1.0145,1.747 2.029,3.4943 2.7337,4.4807 1.2852,1.7994 3.7817,2.1373 5.8331,2.4798 1.5217,0.2534 3.1561,0.3662 4.6214,0.3662 1.4655,0 2.7618,-0.1128 4.0016,-0.3098 1.9299,-0.307 5.0335,-0.9723 6.3273,-2.5166 0.8736,-1.0426 1.7915,-2.9211 2.5211,-4.5003 -0.0561,-1.1838 -0.1125,-2.3672 -0.5355,-4.227 -0.4226,-1.8598 -1.2115,-4.3963 -1.8314,-5.9179 -0.6203,-1.5217 -1.071,-2.0291 -1.9727,-2.5081 -0.9017,-0.4791 -2.2544,-0.9298 -3.7199,-1.3808 -1.4652,-0.451 -3.0433,-0.9017 -4.9314,-0.8736"
         style="fill:#ffffff;fill-opacity:1;fill-rule:evenodd;stroke:none"
         id="path38" />
      <path
         d="m 22.1879,47.0874 c 1.8595,0.5638 3.7196,1.1271 5.5797,1.4655 1.8595,0.3379 3.7196,0.4505 5.4664,0.4505 1.7472,0 3.3817,-0.1126 5.2696,-0.4785 1.8884,-0.3663 4.0303,-0.9868 5.1009,-1.2966 1.0706,-0.3101 1.0706,-0.3101 1.0706,-0.3101 -0.8455,-1.9723 -1.6908,-3.9444 -2.5361,-5.9173 -2.0778,-0.6137 -4.155,-1.2283 -5.5641,-1.6223 -1.4091,-0.3949 -2.1495,-0.5697 -2.9532,-0.5661 -0.803,0.0037 -1.6701,0.1854 -3.2201,0.5806 -1.5497,0.3943 -3.7829,1.0009 -6.016,1.6078 -0.7325,2.029 -1.4655,4.0581 -2.1977,6.0865 z"
         style="fill:#000000;fill-opacity:1;fill-rule:evenodd;stroke:#ffffff;stroke-width:0.4799;stroke-linecap:butt;stroke-linejoin:miter;stroke-miterlimit:22.9256;stroke-dasharray:none;stroke-opacity:1"
         id="path40" />
      <g
         id="g42">
        <path
           d="m 30.6717,43.706 c -0.7327,0.6199 -1.4652,1.2399 -2.198,1.8601 -1.0706,0 -2.1415,0 -2.6773,0 -0.5352,0 -0.5352,0 -0.4226,-0.2534 0.1128,-0.2537 0.3381,-0.7609 0.5638,-1.0993 0.2256,-0.3382 0.4504,-0.5071 0.6763,-0.6764 1.3521,0.0564 2.7048,0.1131 4.0578,0.169 z"
           style="fill:#05edf4;fill-opacity:1;fill-rule:evenodd;stroke:#ffffff;stroke-width:0.4799;stroke-linecap:butt;stroke-linejoin:miter;stroke-miterlimit:22.9256;stroke-dasharray:none;stroke-opacity:1"
           id="path44" />
        <path
           d="m 36.1913,43.6768 c 0.7328,0.6199 1.4653,1.2399 2.198,1.8601 1.0707,0 2.1419,0 2.6773,0 0.5352,0 0.5352,0 0.4227,-0.2534 -0.1131,-0.2537 -0.3382,-0.7609 -0.5641,-1.0993 -0.2251,-0.3382 -0.4504,-0.5071 -0.6761,-0.6764 -1.3521,0.0565 -2.7051,0.1131 -4.0578,0.169 z"
           style="fill:#05edf4;fill-opacity:1;fill-rule:evenodd;stroke:#ffffff;stroke-width:0.4799;stroke-linecap:butt;stroke-linejoin:miter;stroke-miterlimit:22.9256;stroke-dasharray:none;stroke-opacity:1"
           id="path46" />
      </g>
      <path
         d="m 45.4623,47.2419 c 0.4207,0.1678 0.8411,0.4198 1.0931,0.9664 0.2523,0.5465 0.3364,1.3875 0.4623,3.9943 0.1264,2.6067 0.2945,6.9788 0.3787,9.2494 0.0839,2.27 0.0839,2.4384 -0.2523,3.3211 -0.3364,0.8832 -1.0091,2.4806 -1.6818,4.0782 -0.1683,-0.6727 -0.3364,-1.3453 -0.5043,-2.27 -0.1683,-0.925 -0.3367,-2.1025 -0.5045,-3.0271 -0.1684,-0.925 -0.3368,-1.5982 -0.5046,-2.6493 -0.1684,-1.0511 -0.3365,-2.4803 -0.5046,-4.7506 -0.168,-2.27 -0.3367,-5.3815 -0.5045,-8.4926 0.4204,-0.2523 0.8407,-0.5043 1.2611,-0.5884 0.4204,-0.0842 0.8411,0 1.2614,0.1686"
         style="fill:#ffffff;fill-opacity:1;fill-rule:evenodd;stroke:none"
         id="path48" />
      <path
         d="m 21.4007,47.2416 c -0.4204,0.1678 -0.841,0.4201 -1.093,0.9667 -0.2523,0.5465 -0.3365,1.3878 -0.4626,3.9943 -0.1262,2.6067 -0.2943,6.9788 -0.3785,9.2494 -0.0839,2.2703 -0.0839,2.4384 0.2523,3.3214 0.3365,0.8827 1.0092,2.4803 1.6818,4.0779 0.1684,-0.6727 0.3362,-1.3453 0.5043,-2.27 0.1684,-0.9252 0.3368,-2.1022 0.5046,-3.0271 0.1681,-0.925 0.3367,-1.5979 0.5045,-2.649 0.1684,-1.0511 0.3362,-2.4806 0.5046,-4.7506 0.1681,-2.2703 0.3365,-5.3818 0.5049,-8.4929 -0.4207,-0.2525 -0.8411,-0.5045 -1.2615,-0.5884 -0.4203,-0.0845 -0.841,0 -1.2614,0.1683"
         style="fill:#ffffff;fill-opacity:1;fill-rule:evenodd;stroke:none"
         id="path50" />
    </g>
  </g>
</svg>
